<?xml version="1.0" encoding="utf-8"?><!DOCTYPE svg PUBLIC "-//W3C//DTD SVG 1.1//EN" "http://www.w3.org/Graphics/SVG/1.1/DTD/svg11.dtd"><svg version="1.1" id="Contours" xmlns="http://www.w3.org/2000/svg" xmlns:xlink="http://www.w3.org/1999/xlink" x="0px" y="0px" width="1678.696899px" height="1678.696899px" viewBox="-0.000003 -0.000013 1678.696899 657.543274" enable-background="new 0 0 1678.696899 1678.696899" xml:space="preserve" stroke="black" fill="none" stroke-linecap='round' stroke-linejoin='round'><path class="selected"  fill="#000000" opacity="1.000000" stroke="none" 
 	d="
M1311.911059 175.919325 C1313.856372 176.002607 1315.539843 176.517073 1317.249560 176.627852 C1319.981860 176.804884 1322.785083 176.242811 1321.936206 180.855909 C1321.763598 181.794050 1324.939868 183.974409 1326.880542 184.558912 C1332.891162 186.369276 1336.131518 190.913832 1333.279101 196.221052 C1330.875903 200.692305 1330.813403 205.024427 1330.562670 209.657698 C1330.477343 211.232344 1329.627246 213.392897 1328.429980 214.090406 C1327.388720 214.697035 1325.048632 214.055800 1323.848193 213.185560 C1321.878100 211.757368 1319.512500 209.966841 1318.842578 207.846113 C1317.531909 203.697462 1314.900683 203.376783 1311.428393 203.636305 C1309.107958 203.809736 1306.764086 203.655562 1304.430957 203.676741 C1303.619555 203.684095 1302.163867 203.601027 1302.093432 203.858137 C1300.666308 209.068495 1295.294360 208.602064 1291.858447 210.622267 C1287.563525 213.147352 1282.326464 214.077803 1277.485766 215.664686 C1271.908129 217.493116 1266.330249 219.322493 1260.731127 221.083265 C1256.744189 222.337019 1252.087695 222.579237 1248.851733 224.862684 C1242.760913 229.160963 1234.388598 228.273573 1229.129687 234.383802 C1227.945117 235.760267 1224.618334 235.563307 1222.270556 235.597242 C1219.574389 235.636244 1217.989917 236.380629 1216.493823 238.924757 C1215.116381 241.267103 1212.390063 242.856154 1210.133227 244.617140 C1209.458056 245.144056 1207.907641 244.837111 1207.531665 245.415114 C1203.829760 251.108534 1197.056933 252.908766 1192.052661 252.195082 C1182.737597 250.866468 1180.748339 258.453688 1176.736865 262.690870 C1173.035571 266.600355 1168.942919 268.495009 1164.534838 270.845289 C1159.534838 273.511061 1155.270312 277.547682 1150.651171 280.940687 C1149.299243 281.933729 1147.920214 282.983656 1146.393115 283.625319 C1142.811328 285.130262 1137.042895 294.569166 1138.811450 297.639662 C1142.071459 303.299452 1145.206103 309.693129 1152.878222 310.588881 C1155.456958 310.889967 1158.142749 310.135939 1160.783618 310.091200 C1162.422656 310.063307 1164.228808 310.095656 1165.684863 310.731398 C1172.704394 313.796400 1179.980151 315.603712 1187.640917 315.653578 C1197.530932 315.717970 1207.421801 315.669264 1217.312304 315.669264 C1224.536181 315.669264 1231.760180 315.633436 1238.983813 315.677626 C1250.060351 315.745375 1260.974292 314.512037 1271.957934 312.998182 C1278.024096 312.162184 1283.527880 310.303297 1289.295214 308.822645 C1296.916186 306.866163 1304.800585 305.887220 1312.606372 304.719679 C1316.306445 304.166334 1319.868579 303.779493 1322.391528 300.495131 C1323.985888 298.419386 1325.645678 298.011183 1328.819018 298.320997 C1335.839282 299.006178 1342.536059 296.051954 1348.912890 292.939711 C1353.344531 290.776869 1357.815478 288.686110 1362.347094 286.745558 C1362.998583 286.466566 1364.136157 287.543898 1364.968188 287.425734 C1368.029833 286.990614 1371.191210 286.691481 1374.073535 285.663954 C1383.663012 282.245436 1391.738574 274.908094 1402.941577 275.385084 C1405.434008 275.491224 1408.133471 272.077223 1410.631762 270.147169 C1411.917651 269.153883 1412.914843 267.796034 1414.141894 266.715895 C1416.056201 265.030775 1418.640673 263.802321 1419.907519 261.744093 C1423.587939 255.764051 1431.301928 254.871351 1435.769091 260.326674 C1436.195239 260.847181 1436.242236 261.678236 1436.465258 262.365126 C1430.114306 262.990736 1436.276538 265.596449 1435.800952 267.227186 C1435.504321 268.244459 1436.779223 269.669081 1436.583544 270.775587 C1435.767138 275.393812 1434.675097 279.964064 1433.651538 284.544508 C1433.381152 285.753859 1433.274462 287.125197 1432.617724 288.103346 C1426.216723 297.637159 1418.822314 306.634962 1413.523364 316.736281 C1409.260668 324.861891 1403.024462 332.178968 1401.520556 341.769606 C1401.113940 344.362623 1399.040087 346.713331 1397.651538 349.129286 C1394.863696 353.979689 1392.304248 358.995253 1389.124438 363.577528 C1385.586474 368.675978 1381.102343 373.129591 1377.684008 378.296522 C1373.333056 384.873243 1370.050097 392.170668 1365.553027 398.633009 C1360.350878 406.108778 1354.493945 413.154982 1348.574511 420.091749 C1346.478686 422.547804 1343.434619 424.238966 1340.698901 426.095717 C1334.446704 430.339125 1332.892382 438.045851 1327.816577 443.258619 C1324.250903 446.920424 1321.995043 451.683485 1315.817309 451.855116 C1314.398486 451.894606 1312.899096 454.146193 1311.685717 455.589064 C1305.879687 462.493971 1300.823413 470.205397 1294.200854 476.192396 C1288.782275 481.091139 1281.645312 484.186171 1275.006640 487.562697 C1273.546679 488.305433 1270.971362 486.868361 1268.913256 486.417982 C1267.418261 486.090712 1265.929370 485.735304 1264.437915 485.392408 C1264.960498 486.432875 1265.351855 487.569716 1266.031054 488.495070 C1267.832568 490.949293 1266.223803 493.933058 1263.205737 495.801893 C1260.652880 497.382643 1257.953906 499.773756 1256.889819 502.434218 C1255.692797 505.427260 1256.887866 508.000685 1261.270312 508.822279 C1271.675219 510.772841 1281.474047 507.627516 1291.500903 506.327040 C1293.078417 506.122450 1294.934863 505.242323 1296.177294 505.785048 C1300.739306 507.777968 1304.364428 505.889235 1308.117968 503.769423 C1309.169238 503.175673 1310.455615 502.782179 1311.659106 502.709181 C1318.516040 502.293531 1325.377734 501.812635 1332.243090 501.712538 C1343.297900 501.551283 1354.383959 502.152357 1365.406176 501.532362 C1376.261889 500.921705 1387.029101 498.670301 1397.884204 498.135206 C1405.355517 497.766920 1412.908007 499.140455 1420.430224 499.644423 C1422.809985 499.803907 1425.215625 499.559950 1427.598681 499.692640 C1432.131762 499.945082 1436.654101 500.520338 1441.187060 500.599623 C1443.875537 500.646681 1446.599780 499.596754 1449.266894 499.750563 C1455.526660 500.111647 1461.749804 501.141737 1468.010058 501.449965 C1474.865283 501.787489 1481.806567 502.215529 1488.599169 501.519484 C1497.277026 500.630323 1505.298876 502.760450 1513.435839 504.923109 C1516.002246 505.605238 1518.732104 505.808363 1521.176440 506.767469 C1522.855151 507.426222 1524.170336 509.011305 1525.647998 510.182203 C1523.705126 510.897413 1520.932055 512.810865 1519.954272 512.133436 C1513.594409 507.726454 1508.248095 513.110975 1502.461840 513.471998 C1498.081347 513.745375 1493.783251 515.234327 1489.400073 515.595167 C1482.060473 516.199537 1474.672534 516.726637 1467.323657 516.541273 C1461.800219 516.401808 1456.310595 515.060682 1450.794604 514.340834 C1449.885302 514.222242 1448.742358 514.262343 1448.005053 514.714491 C1441.954760 518.424818 1435.142626 518.429701 1428.460742 518.580946 C1423.442309 518.694593 1418.405444 517.775404 1413.377124 517.779249 C1411.319384 517.780836 1409.298999 519.380690 1407.197070 519.582838 C1403.837573 519.905836 1400.420825 519.768873 1397.034594 519.649000 C1389.446459 519.380507 1381.833911 518.506422 1374.291918 518.938490 C1371.652026 519.089735 1368.812548 521.997450 1366.726855 524.257887 C1362.668017 528.656996 1357.684863 525.988661 1353.164721 526.581556 C1351.541064 526.794508 1349.795336 525.780531 1348.088793 525.706129 C1338.673022 525.295729 1329.252124 525.001783 1319.832934 524.671461 C1319.333544 524.653944 1318.765307 524.511488 1318.343066 524.692640 C1310.242114 528.168531 1301.527270 528.617750 1292.974414 529.814772 C1289.985888 530.233046 1286.938769 530.382704 1283.918994 530.378065 C1281.689746 530.374647 1278.844775 528.919447 1277.340625 529.844679 C1271.169116 533.640944 1264.052050 533.315504 1257.585009 533.833082 C1248.054370 534.595778 1238.445605 538.724806 1228.555712 534.427565 C1226.462817 533.518202 1222.956835 535.804579 1220.119555 536.675551 C1212.580249 538.990004 1205.074145 541.416212 1197.507617 543.636671 C1193.475512 544.819960 1189.322314 545.585463 1185.272265 546.713759 C1183.811694 547.120680 1182.200610 547.740187 1181.156909 548.768690 C1174.224292 555.600416 1165.078417 558.015211 1156.615893 561.974379 C1151.863696 564.197645 1146.823657 566.413832 1142.579516 570.613356 C1137.581103 575.558973 1130.577075 579.644178 1123.758227 581.323988 C1112.005908 584.219313 1100.982592 588.194532 1090.503833 594.166151 C1086.808886 596.271864 1082.437426 597.184279 1078.390307 598.683607 C1077.527270 599.003431 1076.447436 599.293226 1075.949145 599.957899 C1070.827807 606.788527 1062.039599 607.934034 1055.841479 613.027968 C1048.399218 619.144362 1039.241992 621.485487 1030.289355 622.215406 C1025.022631 622.644789 1020.104174 623.043104 1014.898242 624.323622 C1010.414965 625.426466 1007.154101 627.418531 1004.446704 630.511549 C1000.088916 635.490187 995.392871 636.578322 988.899707 634.876051 C982.496264 633.197340 974.314990 635.254469 971.002124 643.909193 C969.933154 646.701246 968.054125 647.674086 965.883105 646.238417 C961.329150 643.226698 957.646533 645.633619 953.533984 647.124769 C951.521411 647.854567 948.933154 647.674086 946.767993 647.185316 C938.526171 645.324720 930.482592 641.697523 921.801196 645.027784 C921.225756 645.248671 920.657641 645.594740 920.064868 645.648329 C912.343920 646.346693 904.616870 646.978407 896.898852 647.706801 C896.127612 647.779615 895.405810 648.375013 894.661059 648.727858 C895.361743 649.242384 896.010668 650.102064 896.771533 650.216444 C902.581347 651.090162 908.423754 651.749281 914.229174 652.649244 C915.430957 652.835585 916.520068 653.749708 917.661059 654.328383 C916.648486 655.108656 915.644335 656.531263 914.621752 656.544691 C911.931201 656.580031 909.226367 655.680983 906.538867 655.735548 C900.782031 655.852430 895.035815 656.410414 889.279467 656.652357 C879.863085 657.048109 870.443042 657.478529 861.022143 657.543226 C859.240771 657.555555 857.448413 655.934218 855.661059 655.066725 C856.683398 653.934279 857.500048 652.249281 858.768237 651.777174 C862.023974 650.565443 859.807543 647.749159 859.450732 647.294752 C858.332690 645.870802 856.411669 644.355787 854.740893 644.283827 C852.954882 644.206862 851.053271 645.643141 849.288867 646.581801 C847.754931 647.397657 846.341967 648.440992 844.875659 649.383864 C846.422045 650.479017 847.951953 651.598585 849.522509 652.657789 C850.191577 653.108839 850.945605 653.433668 851.661059 653.815870 C850.847949 654.100416 850.044482 654.591932 849.219775 654.630262 C846.834399 654.740919 844.423754 654.488722 842.053515 654.707655 C837.422534 655.135511 834.040209 653.707594 831.790087 649.373976 C828.931933 643.869581 825.140307 638.787062 822.808520 633.089857 C820.487963 627.419813 825.182177 617.581984 829.229418 613.172682 C831.823168 610.346937 832.300585 605.554274 833.643725 601.614943 C834.342944 599.564039 834.197192 596.659864 835.575976 595.501661 C842.253833 589.892286 846.841723 581.910170 856.258227 579.321486 C864.820361 576.967604 872.742114 572.322279 881.279956 569.831068 C891.614306 566.815504 902.303881 565.021376 912.828662 562.649672 C914.481372 562.277235 916.069995 561.626906 917.697924 561.136732 C923.774340 559.307142 930.056567 555.496901 935.891162 556.087782 C947.748461 557.288649 956.382861 550.040724 966.607592 547.226515 C967.358325 547.019850 968.177294 546.572279 968.868457 546.712050 C977.515551 548.461012 985.110766 544.052809 993.193286 542.575514 C1004.769824 540.459669 1016.552783 538.864882 1027.737231 535.400160 C1037.180712 532.474806 1046.729052 531.360426 1056.142016 531.990980 C1066.102465 532.658278 1074.812060 529.604628 1083.903979 527.033522 C1086.207446 526.382155 1088.851245 527.037062 1091.254077 526.612440 C1096.337573 525.713942 1101.367846 524.510756 1106.411303 523.394239 C1106.842333 523.298781 1107.236621 522.666639 1107.603198 522.705580 C1119.028369 523.919325 1129.272387 517.478346 1140.536547 517.622267 C1141.727343 517.637465 1142.908129 516.887709 1144.125537 516.693068 C1146.698901 516.281569 1149.293627 516.005385 1151.878955 515.668409 C1154.408007 515.338820 1156.927539 514.893873 1159.466479 514.688917 C1168.352832 513.971571 1177.347583 513.952223 1186.109545 512.506666 C1196.095507 510.859083 1205.424365 507.356886 1213.951953 501.215406 C1221.433154 495.827528 1230.123583 492.118422 1238.281176 487.669935 C1239.640185 486.928907 1241.146044 486.377699 1242.344409 485.434401 C1250.633593 478.909742 1258.910449 472.367201 1267.086108 465.701429 C1271.962451 461.725721 1276.590747 457.446119 1281.461474 453.463392 C1282.600756 452.531813 1284.274096 452.256727 1285.696704 451.667494 C1287.119311 451.078199 1288.885058 450.822218 1289.891528 449.812941 C1293.450854 446.243605 1296.667041 442.334852 1300.167651 438.703444 C1304.638232 434.065626 1309.390551 429.695021 1313.780566 424.984938 C1319.204028 419.166090 1324.351977 413.091200 1329.673022 407.175673 C1333.492724 402.929274 1337.550708 398.888502 1341.224536 394.522230 C1344.389819 390.760267 1347.202197 386.696791 1350.098071 382.713942 C1353.442919 378.113600 1356.002001 372.641127 1360.178515 369.018568 C1366.015795 363.955397 1368.398730 356.925551 1372.466235 350.931105 C1377.293994 343.816359 1380.293261 335.486281 1384.786914 328.110548 C1387.916064 322.974440 1392.055957 318.408033 1396.054003 313.859388 C1400.819750 308.437391 1401.750048 301.572279 1397.449389 298.148817 C1396.303027 297.236281 1394.015185 297.158766 1392.434375 297.513319 C1388.980517 298.287672 1385.621997 299.521986 1382.270190 300.698805 C1380.824877 301.206251 1379.235400 301.759535 1378.151538 302.766066 C1371.405322 309.031080 1363.755419 312.684401 1354.314746 311.683424 C1353.325854 311.578505 1351.791552 311.246473 1351.397875 311.735060 C1347.626757 316.414747 1341.382983 315.917799 1336.764819 318.856093 C1335.145678 319.886305 1332.530688 319.866468 1330.469042 319.590345 C1324.021777 318.726698 1318.664233 320.803541 1313.295703 324.210218 C1311.481616 325.361342 1308.201220 324.231031 1305.593676 324.091993 C1303.817431 323.997206 1301.928393 323.340651 1300.291796 323.747633 C1291.099047 326.033766 1281.987231 328.645155 1272.801318 330.960402 C1270.483935 331.544508 1267.992724 331.422865 1265.586962 331.677198 C1263.147631 331.935133 1260.606738 331.904738 1258.299365 332.615004 C1250.558276 334.997816 1242.921557 338.072584 1234.899829 333.669264 C1229.700122 336.671217 1224.777392 335.539015 1219.970996 332.669264 C1213.745410 336.597364 1206.841357 333.850111 1200.298510 334.661635 C1199.173876 334.801039 1197.827929 334.475294 1196.939257 334.984205 C1191.204516 338.267775 1185.477465 335.542494 1179.719653 335.341017 C1174.639697 335.163282 1170.261767 331.738966 1164.614184 333.376783 C1161.357592 334.321364 1157.258349 332.293654 1153.525073 331.684095 C1151.009204 331.273207 1148.468310 330.724745 1145.942187 330.742201 C1143.020922 330.762343 1140.108447 331.497023 1137.181811 331.587660 C1136.056933 331.622450 1134.279467 331.047560 1133.868090 330.219557 C1131.740161 325.935682 1128.204150 323.452833 1124.068530 321.505873 C1123.568042 321.270216 1123.377978 320.375563 1123.043994 319.786329 C1123.751635 319.747328 1124.459033 319.683668 1125.167163 319.674635 C1126.499682 319.657606 1127.832690 319.659254 1129.165209 319.678175 C1129.997485 319.690077 1130.829150 319.747511 1131.661059 319.784559 C1130.906665 318.746107 1130.358813 317.365919 1129.346606 316.753920 C1128.020556 315.952284 1126.337329 315.720350 1124.788378 315.318373 C1124.128466 315.147108 1123.059375 314.843092 1122.786669 315.146986 C1119.351489 318.975905 1118.069628 314.567091 1116.956469 313.153700 C1115.739794 311.608778 1113.778247 308.745192 1117.633593 307.104994 C1118.146167 306.886915 1118.287402 305.795607 1118.600512 305.108717 C1117.913623 305.169264 1117.203417 305.140333 1116.545458 305.311781 C1115.601000 305.558058 1114.694750 305.950392 1113.772143 306.280348 C1113.933764 305.044569 1113.639453 303.193312 1114.334887 302.678297 C1117.586596 300.270033 1118.035205 297.103834 1117.709887 293.478773 C1117.648242 292.791884 1118.154833 292.013929 1118.509570 291.335768 C1122.881396 282.978346 1126.827075 274.348158 1131.862841 266.410231 C1134.142382 262.816603 1138.198046 259.628614 1142.163867 258.001234 C1147.588916 255.775099 1150.972460 251.752516 1155.057177 248.094801 C1158.663012 244.865797 1163.528613 243.012159 1167.923388 240.714613 C1169.267260 240.012037 1171.647998 240.333693 1172.270556 239.363051 C1177.071093 231.878920 1186.747729 231.138380 1192.178149 224.650526 C1195.850634 220.262953 1200.939501 218.983046 1206.197314 217.404585 C1212.793750 215.424208 1219.078295 212.318220 1225.361743 209.405317 C1232.072680 206.294264 1238.338549 202.460859 1245.362231 199.714674 C1251.308642 197.389814 1257.530566 197.055891 1263.258593 194.666273 C1264.395434 194.191999 1265.681567 193.887281 1266.613818 193.145948 C1269.299121 191.010725 1272.154467 190.054823 1275.633959 189.384932 C1279.706225 188.600905 1283.198168 185.196547 1287.238696 183.769270 C1295.272021 180.931562 1303.508471 178.669325 1311.911059 175.919325 M1069.161059 559.669264 C1067.328173 559.669264 1065.411425 559.314833 1063.675708 559.725538 C1050.192187 562.915785 1036.819018 566.621168 1023.255175 569.403761 C1015.501025 570.994520 1008.416186 576.449904 999.811450 573.756605 C998.818774 573.445875 997.358569 574.153700 996.271167 574.699843 C990.644458 577.525831 984.787646 578.719130 978.429736 578.846449 C973.829272 578.938551 969.261523 580.669386 964.679248 581.669386 C963.151782 582.002699 961.605029 582.266310 960.100756 582.683485 C956.819995 583.593458 953.614306 584.896315 950.280078 585.463942 C945.274096 586.316298 940.946582 589.772291 935.404956 588.814589 C933.278125 588.447096 929.848193 588.941603 928.757983 590.373182 C923.024951 597.900526 914.412890 597.861158 906.501391 599.631910 C899.371386 601.227736 891.766284 600.889051 885.358325 605.349379 C884.045336 606.263380 882.077563 606.212782 880.431689 606.677748 C877.005419 607.645338 873.606005 608.709181 870.170947 609.643263 C866.271777 610.703383 862.306445 611.537123 858.449389 612.727186 C856.709277 613.264051 854.800952 614.087294 853.598315 615.370375 C850.644091 618.521925 851.651293 625.429640 854.981982 625.571486 C862.353808 625.885634 869.751147 625.797560 877.132617 625.629713 C883.327807 625.488844 889.984667 623.385328 895.605151 625.016859 C906.240771 628.104200 916.007128 624.321486 926.119799 623.605482 C933.231616 623.101942 940.319262 621.900648 947.340625 620.596266 C952.520068 619.634108 958.273242 619.090529 962.499316 616.378920 C967.208667 613.357191 972.312426 613.263624 977.009692 611.429884 C982.593310 609.250258 989.117480 609.854017 993.987231 605.167860 C995.851489 603.373793 999.497851 603.387220 1002.358203 602.682447 C1007.503588 601.414625 1012.938403 600.874037 1017.766284 598.863112 C1026.432055 595.253920 1034.634692 590.546217 1043.232714 586.755568 C1048.573779 584.400709 1054.436572 583.236036 1059.798510 580.919752 C1068.723437 577.064100 1077.009570 571.779921 1087.021167 570.577467 C1094.122607 569.724501 1101.283740 568.259779 1107.076342 563.633741 C1110.363818 561.008253 1113.680834 559.669691 1117.947436 559.544630 C1122.860766 559.400587 1128.194384 559.208876 1130.037036 552.899855 C1130.302783 551.990431 1131.715747 551.444960 1132.528491 550.659376 C1133.608447 549.615553 1135.652636 548.226515 1135.451953 547.472975 C1134.996508 545.761305 1133.744311 543.818983 1132.246020 542.907240 C1126.936572 539.676771 1114.331469 541.839674 1109.595141 546.099623 C1107.809130 547.705946 1105.388598 549.235731 1103.095751 549.526564 C1097.125170 550.283827 1091.068530 550.465468 1085.039599 550.616102 C1081.895434 550.694655 1079.449877 550.717482 1077.376757 554.083326 C1075.912524 556.460890 1072.309375 557.521010 1069.161059 559.669264 M1356.161059 300.669264 C1356.841113 301.335951 1357.426318 302.384230 1358.223071 302.582411 C1359.516772 302.904310 1360.960498 302.776136 1362.318286 302.628981 C1363.121752 302.541822 1363.881640 302.053236 1364.661059 301.745009 C1364.070239 301.053114 1363.507617 299.803175 1362.883227 299.771498 C1360.821093 299.666945 1358.736865 300.002577 1356.161059 300.669264 M882.161059 651.669264 C883.823291 651.998121 885.478442 652.510450 887.150683 652.574232 C887.923754 652.603651 888.730151 651.757887 889.521411 651.308973 C889.023486 650.762404 888.553149 649.776869 888.022998 649.743544 C885.417407 649.579908 882.795947 649.669264 880.180102 649.669264 C880.507128 650.335951 880.834033 651.002577 882.161059 651.669264 M1431.161059 504.669264 C1429.134204 504.696058 1427.106250 504.703444 1425.084765 504.821241 C1425.004321 504.826002 1424.984912 505.880079 1424.937060 506.445204 C1426.827807 506.370497 1428.723437 506.350294 1430.604907 506.175612 C1430.984790 506.140394 1431.310473 505.519911 1431.161059 504.669264 M1144.661059 541.169264 C1143.971362 540.525648 1143.281665 539.881971 1142.591967 539.238295 C1142.305346 540.572218 1142.018603 541.906202 1141.731982 543.240126 C1142.541674 542.716505 1143.351367 542.192885 1144.661059 541.169264 M843.161059 648.669203 C842.141528 648.688734 841.121997 648.708265 840.102465 648.727858 C840.269213 649.188795 840.526171 650.062758 840.588916 650.049025 C841.627490 649.821791 842.641528 649.483107 843.161059 648.669203 M875.161059 645.669264 C874.477465 645.352858 873.793872 645.036451 873.110278 644.720045 C873.278247 645.520826 873.446215 646.321669 873.614184 647.122450 C874.296435 646.804701 874.978808 646.486952 875.161059 645.669264 z"/><path class="selected"  fill="#000000" opacity="1.000000" stroke="none" 
 	d="
M56.661059 275.669264 C54.327716 285.535048 52.100878 294.928968 49.628466 304.257948 C47.524798 312.195448 44.841021 319.987623 42.951617 327.971327 C40.569171 338.038466 38.769274 348.242567 36.643878 358.371962 C35.747149 362.645582 34.495852 366.848768 33.697390 371.138258 C32.281069 378.746901 31.498843 386.496168 29.690036 394.003187 C27.700381 402.260817 24.755664 410.284254 22.440036 418.469984 C21.793521 420.755446 21.479190 423.303785 21.756259 425.643446 C22.211184 429.484877 24.923922 430.570692 28.187380 428.647718 C33.451998 425.545485 38.536105 422.440077 42.623583 417.548842 C45.194873 414.471937 49.637561 412.996290 53.128283 410.636061 C55.118640 409.290175 57.121203 407.819960 58.694537 406.032667 C61.160296 403.231703 62.964282 405.499525 64.131579 406.918348 C64.911120 407.865797 64.909045 410.773207 64.096392 411.492567 C59.923754 415.186171 55.363879 418.440565 50.968432 421.885695 C50.187182 422.498060 49.240100 423.159987 48.884906 424.013502 C46.046603 430.833937 40.615527 434.567091 33.941989 436.899916 C33.800280 436.949354 33.681124 437.111830 33.588702 437.247084 C29.610141 443.068678 24.713519 448.492323 21.952716 454.844191 C19.741488 459.931776 4.759844 464.134596 2.168841 460.247755 C0.195895 457.287977 -0.055326 452.759840 0.008609 448.947584 C0.157290 440.081190 3.799624 432.019117 6.317889 423.651991 C7.825808 418.641737 6.684619 412.874220 8.464312 407.350538 C11.372988 398.322767 13.022006 388.889235 15.204592 379.627333 C15.347323 379.021620 15.702304 378.396864 15.632724 377.820265 C13.845111 363.006605 18.535510 349.464003 23.583331 335.934767 C24.775103 332.740553 25.849566 329.090651 25.493487 325.811537 C24.588702 317.479384 28.738787 310.387220 30.170932 302.663282 C30.858905 298.952955 31.106250 295.074537 32.390094 291.579664 C34.829028 284.940504 38.424563 278.695875 40.526065 271.970594 C43.399874 262.773756 45.109606 253.218275 47.785266 243.951429 C48.662249 240.914137 50.802020 238.158705 52.701281 235.516615 C56.599993 230.093214 57.532122 223.803785 58.767688 217.495955 C59.377429 214.383009 60.533190 211.037886 62.453082 208.591353 C66.440386 203.510298 66.576708 197.545668 67.784228 191.731642 C68.166949 189.888990 69.648455 187.792250 71.242022 186.776259 C75.556414 184.025679 78.586383 180.836866 78.757769 175.353468 C78.817462 173.444197 79.909930 171.534712 80.678240 169.686689 C82.408770 165.524153 83.477709 160.900892 85.153491 157.052321 C87.762652 151.060133 90.484820 143.887007 97.249438 140.712355 C102.403338 138.293623 102.486132 133.795088 101.937152 129.704847 C101.502215 126.464460 101.833789 124.152510 104.373004 122.549025 C108.271685 120.087111 109.269854 116.173262 110.786181 112.247633 C112.334674 108.238630 114.290454 104.074476 117.132891 100.945784 C122.335223 95.219557 125.589038 88.669294 128.916156 81.782332 C133.037860 73.250593 139.099108 65.665266 144.193591 57.589796 C146.509112 53.919386 148.264636 49.881849 150.714404 46.313032 C155.458789 39.401320 159.396258 31.781660 166.755053 26.996412 C167.609118 26.441023 168.462146 25.286360 168.593615 24.312086 C169.633959 16.602095 173.344531 10.372541 178.800830 5.021162 C185.905871 -1.947344 193.079333 -1.724047 199.349108 6.076002 C200.284259 7.239393 199.670550 9.707380 199.647906 11.570295 C199.566699 18.258345 196.942584 23.210218 191.052020 27.027113 C185.795611 30.433119 181.081652 34.846998 176.733966 39.395063 C175.145739 41.056562 174.179278 44.843031 174.986590 46.819868 C175.745745 48.678816 179.143664 50.297163 181.508563 50.495466 C187.058184 50.960829 192.510577 50.776350 197.986987 48.209822 C201.695452 46.471846 206.523730 47.188002 210.830767 46.644636 C215.234820 46.089094 219.599353 45.196150 224.010913 44.735151 C225.887194 44.539106 227.839862 45.059614 229.756396 45.267469 C230.868640 45.388105 232.533435 46.072065 233.003375 45.586592 C238.006091 40.418379 244.901965 44.165785 250.444293 41.701460 C253.113391 40.514662 255.880297 39.061140 258.698931 38.811201 C262.972949 38.432173 267.347888 38.813856 271.647418 39.218214 C275.173785 39.549849 278.052325 39.721632 281.653155 37.650251 C286.474902 34.876570 292.433581 33.474196 298.058215 32.831251 C308.774279 31.606215 319.687854 31.973555 330.355151 30.494764 C341.624377 28.932509 353.528186 29.678450 363.771167 23.146132 C364.622912 22.602949 366.090380 22.408125 367.040271 22.731428 C376.713427 26.023390 385.167895 19.583540 394.391101 19.406599 C396.122302 19.373396 397.843371 18.721968 399.572863 18.703413 C408.599719 18.606672 417.656665 18.985975 426.352038 15.736342 C427.267138 15.394331 428.526293 16.021711 429.632556 16.130568 C431.197863 16.284590 433.790759 17.010603 434.176562 16.391127 C437.226672 11.493574 441.243029 13.419111 444.900073 14.738997 C451.144580 16.992720 456.485461 13.459303 462.237170 12.606001 C464.765856 12.230879 467.305407 11.849775 469.853320 11.704207 C472.568042 11.549116 475.574084 12.412733 477.968432 11.524855 C484.249621 9.195540 490.389331 9.022139 496.793994 10.601362 C498.505114 11.023268 500.802478 11.273878 502.178881 10.477125 C509.377124 6.310408 517.537463 7.235701 525.222705 5.772871 C527.118945 5.411940 529.252917 6.562025 531.289538 6.623762 C536.008532 6.766859 540.738391 6.558760 545.456652 6.713697 C547.993212 6.797041 550.545642 7.761152 553.036608 7.580153 C558.114855 7.211134 563.159167 5.789259 568.212268 5.815291 C573.829211 5.844160 579.444567 6.970900 585.050524 7.697432 C586.104541 7.834028 587.095446 8.557814 588.142260 8.631941 C593.466479 9.009077 596.440966 11.930220 596.644763 17.282972 C596.739855 19.779127 596.661059 22.281843 596.661059 24.781599 C596.661059 32.617628 593.301745 37.981093 585.727771 38.342939 C579.705798 38.630720 574.683764 40.596083 569.369433 42.582106 C568.073352 43.066450 566.371997 42.466536 564.856982 42.365187 C566.049182 40.799910 567.056323 38.102491 568.466662 37.871962 C573.634936 37.027021 578.943591 37.069197 584.179919 36.572279 C584.738940 36.519209 585.710864 34.555311 585.581530 34.432051 C582.781787 31.762648 580.227038 28.062178 576.849169 26.978163 C573.021716 25.749830 568.140063 25.737623 565.517138 30.857130 C564.976611 31.912153 562.622363 32.345930 561.054431 32.478193 C559.548449 32.605238 557.982836 31.742811 556.435229 31.710615 C551.214221 31.602003 545.974108 31.427443 540.771838 31.757765 C537.524523 31.963972 534.263049 32.806440 531.127917 33.758436 C522.134387 36.489485 513.469836 39.162336 503.541613 38.048536 C495.668017 37.165175 487.429431 39.826948 479.323046 40.602369 C475.303271 40.986860 471.017016 41.455122 467.205065 40.489241 C461.012072 38.920027 455.904406 39.104353 451.405322 44.239424 C450.217883 45.594770 447.870654 46.382368 445.966418 46.583662 C437.764636 47.450666 429.529528 48.002852 421.306445 48.667616 C421.140917 48.681013 420.918078 48.598585 420.814563 48.679426 C414.896716 53.301069 408.469897 48.699171 402.396350 49.763655 C400.714709 50.058394 398.043505 51.311262 397.864245 52.446455 C397.025378 57.756941 392.642260 57.687697 390.057055 56.450941 C381.607958 52.408857 373.805346 54.006605 365.372058 56.430311 C359.816699 58.026960 353.600085 57.283857 347.687609 57.701857 C345.977526 57.822767 343.924304 57.828383 342.660388 58.751844 C334.645678 64.607893 325.392810 64.966017 316.017504 65.830031 C307.099414 66.651869 298.207934 68.402510 289.480059 70.480879 C279.295733 72.906080 269.431994 76.169539 258.645739 75.859419 C249.616168 75.599806 240.120379 75.597364 231.619189 78.128340 C225.194079 80.041212 218.810626 79.397902 212.825457 81.029463 C208.250781 82.276533 204.193164 85.431196 198.960223 84.927565 C197.444812 84.781721 195.857318 85.622419 194.300219 85.633284 C184.244586 85.703566 174.162280 85.238722 164.142626 85.843153 C158.790393 86.165999 153.456561 88.006361 148.301074 89.722548 C146.487170 90.326368 144.925341 92.403242 143.785723 94.156752 C141.852893 97.130781 140.263323 100.340620 138.678179 103.525312 C135.241534 110.429640 132.217639 117.561598 128.419177 124.256788 C125.246539 129.848799 121.207751 134.948927 117.563128 140.274122 C116.945208 141.176924 115.740252 142.240248 115.891101 143.019545 C117.318438 150.394789 111.427478 154.603987 108.587451 160.044783 C101.138934 174.314558 93.344744 188.404280 85.644183 202.541700 C84.378161 204.865980 83.050494 207.190260 81.464373 209.298689 C79.170764 212.347548 78.816760 215.545881 81.082232 218.444960 C83.057055 220.972120 85.656359 222.740126 89.306109 220.723402 C91.987231 219.241896 94.902819 218.148939 97.785815 217.076063 C103.708636 214.871840 109.776629 213.031538 115.610003 210.618757 C126.544238 206.096083 138.271533 207.493940 149.553607 205.654158 C155.152972 204.741041 160.702319 203.479231 166.323931 202.766859 C168.442706 202.498396 170.758044 203.823988 172.886065 203.577986 C179.334552 202.832502 185.739001 201.696699 192.150805 200.652662 C193.205035 200.480970 194.190692 199.798781 195.240283 199.701979 C203.124407 198.975111 211.014239 198.305830 218.906939 197.677229 C227.721636 196.975172 236.032031 194.294905 244.373553 191.581984 C247.064379 190.706892 250.139544 191.089216 252.997790 190.636610 C257.974200 189.848646 262.886065 188.498457 267.884906 188.046675 C273.889361 187.503950 279.958911 187.716169 285.995227 187.475050 C288.507922 187.374647 291.031207 186.579573 293.508776 186.738325 C300.910815 187.212690 308.286120 188.098921 315.686999 188.600996 C317.517626 188.725203 319.393664 187.888716 321.269519 187.688337 C331.016589 186.647352 340.758471 185.528273 350.525012 184.708357 C360.566271 183.865461 370.628894 182.939589 380.691882 182.810652 C387.238696 182.726759 393.823352 183.860945 400.341479 184.795027 C401.567858 184.970747 402.838854 186.630781 403.512988 187.909712 C403.755297 188.369246 402.432116 189.863447 401.598620 190.646040 C396.820056 195.133192 390.313586 194.365706 384.646838 195.418287 C373.551989 197.479200 362.033801 197.448378 352.292895 204.405714 C351.397692 205.045088 349.729602 204.566633 348.426074 204.675886 C340.764453 205.318190 332.788684 202.847273 325.455432 207.197737 C324.455310 207.791090 322.530017 207.015364 321.091174 206.646833 C313.817553 204.783735 307.451586 208.218947 300.806750 210.027388 C298.862231 210.556654 296.797320 211.855574 295.010882 211.539564 C288.041308 210.306593 283.482226 214.969984 278.812182 218.342695 C273.827502 221.942640 268.728564 219.974501 263.714587 220.632063 C263.399340 220.673384 263.013873 220.179701 262.661059 219.934950 C263.403063 219.271010 264.075701 218.499159 264.902728 217.967451 C266.279406 217.082411 269.639453 218.387434 268.043444 214.435316 C266.533740 210.696913 262.257220 209.093000 259.153521 211.721449 C257.505908 213.116743 255.485980 214.495222 254.644274 216.341749 C251.888842 222.386396 247.057971 221.181410 243.005969 219.312117 C233.411120 214.885756 225.449206 216.321577 217.867236 223.600477 C216.547656 224.867262 212.357348 224.614027 210.444720 223.470656 C207.019458 221.423048 203.937884 221.440291 200.577319 222.689528 C194.370135 224.996901 188.340258 227.914503 181.981341 229.634413 C177.610430 230.816603 172.807360 230.386488 168.200305 230.716444 C165.961230 230.876844 163.730578 231.151686 161.492511 231.329542 C159.711138 231.471266 157.471820 232.274977 156.228778 231.504835 C153.081225 229.554762 151.584704 231.772902 149.598681 233.216566 C139.947131 240.232374 129.359027 242.399000 117.767352 239.282362 C116.862323 239.039076 115.886584 238.572279 115.028735 238.716200 C107.568164 239.968092 100.138232 241.402418 92.677264 242.651808 C83.998797 244.105116 76.067767 247.552748 68.459246 251.756544 C66.922808 252.605421 65.626849 254.401747 64.869921 256.058302 C61.989337 262.362684 59.374926 268.788710 56.661059 275.669264 M281.161029 203.669264 C280.622515 203.002607 280.084002 202.335951 279.545489 201.669264 C279.250689 201.964094 278.955889 202.258894 278.661059 202.553694 C279.327746 203.092207 279.994403 203.630720 281.161029 203.669264 M210.661059 220.169294 C211.661059 220.165724 212.661273 220.166761 213.659075 220.117933 C213.675006 220.117140 213.674975 219.221418 213.659075 219.220656 C212.661273 219.171827 211.661059 219.172834 210.661059 220.169294 z"/><path class="selected"  fill="#000000" opacity="1.000000" stroke="none" 
 	d="
M550.911059 358.919264 C549.011218 362.152418 547.492053 365.219923 545.646044 368.076246 C544.928637 369.186110 543.591723 370.136183 542.330920 370.606947 C539.148852 371.794996 535.649707 372.263685 532.636584 373.748915 C525.008959 377.509047 517.632495 381.776747 510.028796 385.588636 C508.274157 386.468336 505.984912 386.224257 503.994189 386.711744 C502.829394 386.996962 501.058032 387.463331 500.783068 388.266859 C499.540148 391.898878 496.248400 391.614393 493.582385 392.733534 C489.322070 394.521925 484.917590 396.267347 481.162219 398.877272 C477.054553 401.732069 473.628283 405.563124 469.866687 408.925734 C469.431811 409.314406 468.688952 409.727369 468.193652 409.624586 C460.213854 407.968641 454.289294 414.440260 446.875415 414.960280 C443.914843 415.167860 440.948657 415.699843 438.002246 415.596144 C434.861560 415.485426 432.465563 416.075453 430.146472 418.543593 C423.946093 425.142408 408.346118 423.785414 402.957080 416.482130 C401.250354 414.169203 399.038195 412.143873 397.734240 409.635084 C393.769274 402.006300 392.445544 394.050306 396.009265 385.803663 C396.314135 385.098280 396.743884 384.263746 396.616870 383.582228 C394.565234 372.580397 401.207080 364.094191 405.052417 354.880018 C411.406909 339.653456 421.478320 326.971266 433.237292 315.540907 C434.837756 313.985182 436.022875 312.011488 437.516955 310.335280 C444.718066 302.256483 454.155139 297.439344 463.385974 292.199110 C466.669360 290.335218 469.137438 286.840284 471.612902 283.793593 C475.310717 279.242567 479.408007 276.140516 485.382983 274.357679 C491.617114 272.497450 497.103625 268.143507 502.933154 264.908949 C504.960437 263.784132 506.925524 262.359083 509.108813 261.735975 C518.811572 258.966871 524.986743 250.980055 533.111254 245.959059 C539.760302 241.849989 546.958483 238.227552 554.384570 235.881117 C563.304614 233.062574 572.664233 231.395399 581.954699 230.096327 C586.168811 229.507032 590.902026 230.338453 594.989123 231.730787 C599.760729 233.356337 604.158801 236.168287 608.576525 238.712721 C611.792224 240.564833 614.411181 242.838331 612.779833 247.373793 C612.331225 248.621046 613.577807 250.386488 613.587817 251.917128 C613.596972 253.333448 612.992236 254.753798 612.657885 256.172438 C611.325610 255.779432 609.659167 255.761793 608.720874 254.926344 C605.269580 251.853407 602.503039 247.733351 598.618029 245.514174 C595.539233 243.755446 591.115100 243.449476 587.444079 243.867262 C583.232775 244.346571 579.204943 246.373610 575.075427 247.657545 C571.674365 248.714979 567.912707 249.093153 564.902209 250.809523 C560.786730 253.155897 557.297839 256.578322 553.403002 259.346266 C551.924792 260.396742 550.091662 260.977980 548.372851 261.652235 C546.221057 262.496412 543.251635 262.581739 541.989428 264.111891 C538.602221 268.217787 533.945971 269.475416 529.485339 271.559950 C525.126818 273.596815 521.044116 276.503737 517.386279 279.661329 C514.962329 281.753798 512.790942 283.055372 509.576403 282.705214 C506.593310 282.380140 504.866381 283.236158 503.365283 286.581434 C502.026599 289.564711 499.893176 294.446791 494.256213 291.781263 C493.261340 291.310865 491.203356 291.879591 490.264514 292.693312 C483.477343 298.576063 476.864123 304.659071 470.168139 310.647718 C467.874438 312.699110 465.709948 315.006178 463.112475 316.578871 C459.817736 318.573805 456.959033 320.116346 456.345507 324.757643 C456.059313 326.923170 452.629931 329.027723 450.216845 330.482557 C445.457934 333.351942 440.322863 335.595656 435.547534 338.440870 C434.217517 339.233290 433.025866 341.127943 432.757128 342.686903 C431.279040 351.260634 425.325427 356.821425 420.023730 362.975111 C416.776599 366.744032 413.829638 371.015638 411.808215 375.535719 C409.204455 381.357924 411.654101 386.700575 415.127368 391.718519 C419.127063 397.497145 424.830798 396.116285 430.176806 395.554518 C435.807788 394.962904 441.386889 393.769789 446.940661 392.609694 C448.864001 392.207899 450.760424 391.315504 452.468127 390.306837 C459.309069 386.266493 465.614855 380.115248 472.966296 378.419325 C484.767077 375.697035 493.056567 368.393385 502.169116 361.767347 C505.020251 359.694288 508.322253 358.177565 511.554370 356.705885 C517.719409 353.898634 523.975512 351.290358 530.209460 348.636427 C531.908923 347.912977 533.899523 347.642775 535.337268 346.591383 C537.320239 345.141249 540.084887 343.343092 540.416735 341.345533 C541.118212 337.123182 543.750903 336.383314 546.987292 335.640577 C549.245166 335.122450 551.685168 334.747389 553.623522 333.599012 C562.638781 328.257765 570.709399 321.753309 577.943957 314.087477 C581.159167 310.680677 585.233447 307.842909 589.383105 305.612745 C596.778002 301.638624 600.974230 294.786451 606.139941 288.740248 C613.180163 280.500013 620.535937 272.526136 627.448107 264.182570 C628.796191 262.555433 628.638659 259.730482 629.344714 257.511854 C630.905932 252.605299 635.306506 250.719862 639.144885 253.807020 C643.905200 257.635511 648.472033 262.099562 649.497424 268.419813 C650.072985 271.967421 648.806750 275.778334 648.707263 279.479689 C648.574267 284.427321 648.600695 289.160658 651.092395 293.997023 C652.874499 297.456068 651.733874 302.292189 652.749011 306.297987 C656.466113 320.965651 663.603747 334.080946 672.824450 345.906385 C675.942858 349.905653 680.770922 352.720289 685.164782 355.534315 C689.441943 358.273512 694.172106 360.302809 698.646655 362.747694 C698.782153 362.821730 698.299792 364.061598 698.077380 364.748915 C697.434680 366.735182 691.478015 366.488844 695.661059 370.504713 C693.865893 371.892836 692.201708 373.513014 690.246020 374.616713 C687.027636 376.433058 683.688464 378.082655 680.265612 379.470594 C678.407824 380.223951 676.184436 380.856031 674.278918 380.559584 C669.303332 379.785536 662.994311 382.030165 661.004260 373.935499 C660.445056 371.660841 655.869006 369.164808 652.970141 368.944410 C648.041796 368.569532 645.660937 365.627577 643.834033 362.195082 C639.615771 354.269728 634.978076 346.405836 634.561267 337.054091 C634.460925 334.802687 634.558764 332.542982 634.538439 330.287306 C634.522387 328.502577 634.728259 326.664564 634.377063 324.943800 C633.253100 319.437147 632.027331 313.944410 630.584948 308.514296 C630.210620 307.105055 629.136584 305.156202 627.979357 304.810926 C623.818347 303.569288 619.398425 301.253126 615.971240 306.726881 C613.689013 310.372084 610.289233 313.315870 607.993151 316.954420 C603.355151 324.304030 596.369921 328.971632 589.790759 334.200819 C587.910571 335.695204 586.658740 338.154738 585.530322 340.380385 C583.734851 343.921400 580.893176 345.703566 577.197802 346.735121 C575.150805 347.306471 572.763049 348.078322 571.441149 349.568922 C566.796862 354.805555 561.443164 358.033522 554.234790 357.721327 C553.225817 357.677687 552.186389 358.335890 550.911059 358.919264 M509.661059 379.169264 C511.268969 378.561293 512.890734 377.984022 514.454760 377.278822 C514.562915 377.230116 514.241259 376.227980 514.119555 375.669264 C512.751086 376.384901 511.380664 377.096693 510.017321 377.821913 C509.876757 377.896681 509.778796 378.051588 509.661059 379.169264 M501.661120 382.169325 C501.438464 382.613356 501.215869 383.057386 500.993151 383.501356 C501.882434 383.273268 502.771777 383.045118 503.661059 382.817030 C503.161059 382.434401 502.661059 382.051832 501.661120 382.169325 z"/><path class="selected"  fill="#000000" opacity="1.000000" stroke="none" 
 	d="
M898.411059 300.919264 C886.738330 295.256361 877.195605 286.953322 866.624194 280.235182 C864.988452 279.195692 862.719409 279.210585 860.914233 278.370436 C850.255175 273.409315 840.476855 276.705275 832.190600 283.065321 C826.023974 287.798414 822.688647 295.397841 820.682788 303.123060 C818.257861 312.462721 816.039721 321.856154 813.613879 331.195631 C813.235339 332.652906 812.365710 334.041945 811.490344 335.300673 C807.242785 341.408827 804.944201 347.887831 806.624804 355.479078 C808.461108 363.774122 797.282153 380.073256 786.597216 377.468458 C784.625415 376.987806 782.397265 374.128248 781.833667 371.964003 C780.327136 366.178846 780.040148 360.078688 778.570849 354.280592 C776.456469 345.937025 778.204699 338.156080 779.462451 329.868727 C781.161242 318.675612 787.210192 309.614332 790.935534 299.505995 C794.699572 289.292494 800.491137 279.790663 805.822497 270.215345 C807.148608 267.833693 810.127185 266.372938 812.343798 264.486097 C821.335253 256.832472 831.750170 251.442640 841.834033 245.470594 C845.151293 243.505995 847.301440 239.357496 849.597094 235.946425 C851.571948 233.012037 852.825488 229.600538 854.703417 226.590590 C857.102099 222.745741 862.130297 222.675856 866.681811 226.190077 C869.098803 228.056227 869.622119 233.995192 867.426562 236.337233 C866.473437 237.353895 865.141650 238.013990 863.987719 238.844130 C860.007495 241.707350 859.700366 246.599440 863.746386 249.123671 C867.789477 251.646010 872.288134 253.427137 876.493090 255.706495 C878.556323 256.825026 880.376757 258.382948 882.359057 259.661268 C891.691699 265.679274 901.329394 271.276014 910.283618 277.810438 C916.051074 282.019362 921.580249 287.025831 925.829150 292.711500 C930.016284 298.314589 932.325122 305.295912 935.760058 311.505507 C936.538867 312.913771 938.433032 314.192885 940.038500 314.566603 C945.327319 315.797743 947.032641 318.915663 949.070483 324.078199 C953.327319 334.862806 956.422290 347.043287 966.860888 354.052504 C970.797290 356.695753 976.142382 357.309523 980.908496 358.618788 C983.189013 359.245314 986.292407 358.527784 987.846362 359.826674 C991.886157 363.203383 994.394580 361.599745 997.427417 358.594008 C998.544726 357.486769 1000.789477 357.002516 1002.433886 357.156080 C1003.274462 357.234572 1004.808764 360.006544 1004.498950 360.423414 C1003.485644 361.786696 1001.719042 362.565687 1000.340869 363.690260 C999.364794 364.486769 998.062670 365.335096 997.744799 366.408644 C996.343432 371.141981 993.276538 372.211866 988.197436 371.913954 C981.775439 371.537245 975.272753 372.662306 968.797412 372.993239 C966.536547 373.108839 964.196948 373.064406 961.992236 372.611464 C957.576953 371.704176 953.032275 370.942457 948.907397 369.235487 C944.313159 367.334303 941.902026 363.350660 940.495776 358.394239 C939.508959 354.916029 937.609301 351.152723 934.962573 348.835524 C932.050830 346.286085 930.380175 343.562574 929.561572 340.042311 C929.304736 338.937697 929.153247 337.760389 929.236132 336.637159 C929.338427 335.251417 930.432788 333.148817 929.889941 332.636610 C926.872729 329.789442 923.489062 327.330519 920.230639 324.738783 C919.891162 325.399305 919.419360 326.033278 919.278857 326.733717 C919.224414 327.005385 920.001147 327.376295 920.257983 327.789747 C921.256762 329.396803 922.198901 331.039076 923.162036 332.668287 C921.101977 331.608839 918.085009 331.070265 917.169116 329.387953 C914.833056 325.097181 913.714160 320.159926 911.565356 315.745558 C910.065966 312.665114 907.891650 309.825026 905.607592 307.241224 C903.587451 304.956129 900.998706 303.173658 898.411059 300.919264 M795.661059 370.169264 C794.121997 369.708387 792.582873 369.247450 791.043811 368.786512 C790.916247 369.214308 790.788684 369.642103 790.661059 370.069899 C792.000842 370.269667 793.340319 370.471815 794.680834 370.666212 C794.837756 370.688917 795.000842 370.669264 795.661059 370.169264 M992.161059 366.669264 C991.663378 366.669264 991.145434 366.581984 990.672900 366.690870 C990.048388 366.834608 989.459521 367.132093 988.855273 367.363478 C990.002246 367.798781 991.149096 368.234022 992.296069 368.669264 C992.417773 368.169264 992.539477 367.669264 992.161059 366.669264 M937.161059 342.669264 C936.994433 342.069044 936.921313 341.419752 936.638720 340.880201 C936.231127 340.101515 935.671557 339.402357 935.176562 338.669264 C935.338061 339.587233 935.471728 340.511366 935.673266 341.420485 C935.768969 341.851515 935.994433 342.253920 937.161059 342.669264 M860.161059 228.669203 C860.661059 228.256117 861.161059 227.843031 861.661059 227.430006 C861.001513 227.176405 860.342089 226.922865 859.682421 226.669264 C859.508593 227.335890 859.334765 228.002577 860.161059 228.669203 z"/><path class="selected"  fill="#000000" opacity="1.000000" stroke="none" 
 	d="
M1641.411059 369.919264 C1647.311938 371.002638 1652.940600 372.126417 1658.621997 372.559340 C1661.977465 372.814955 1664.692553 373.419203 1667.394946 375.706617 C1670.704882 378.508131 1674.701586 380.492323 1678.336962 382.925795 C1678.688525 383.161146 1678.587695 384.072035 1678.696948 384.669264 C1672.803637 385.498610 1676.698168 389.001906 1677.459521 390.758375 C1679.171557 394.708143 1678.284472 397.118544 1674.111743 397.687269 C1673.198168 397.811781 1672.177417 397.956312 1671.441455 398.445692 C1667.118090 401.319899 1663.085498 404.726881 1658.508349 407.089186 C1655.558154 408.611891 1651.873461 408.902968 1648.465747 409.311110 C1639.115893 410.431105 1629.821215 410.472853 1621.577929 404.979384 C1619.099169 403.327589 1618.392871 401.092543 1621.164233 398.473707 C1622.486010 397.224745 1622.853564 394.939039 1623.535449 393.079786 C1623.607714 392.882582 1622.937426 392.288588 1622.512744 392.081434 C1622.268969 391.962538 1621.685717 392.143568 1621.502124 392.380629 C1621.132495 392.857985 1621.035327 393.558302 1620.640551 394.002028 C1619.679125 395.083204 1618.611621 396.070204 1617.586962 397.095228 C1617.611621 395.529005 1617.054370 393.600538 1617.764086 392.460768 C1620.510913 388.049391 1623.388720 383.658156 1626.742602 379.704542 C1629.739184 376.171949 1633.310961 373.085829 1636.890063 370.117445 C1637.806933 369.357008 1639.710620 369.786390 1641.411059 369.919264 z"/><path class="selected"  fill="#000000" opacity="1.000000" stroke="none" 
 	d="
M1299.661059 234.669264 C1301.710986 227.636671 1307.308764 225.781996 1312.916552 223.507887 C1315.525805 222.449720 1317.358203 219.568312 1319.695849 217.705366 C1320.743823 216.870192 1322.167651 216.506697 1323.420825 215.929182 C1323.426562 217.083540 1323.750048 218.351149 1323.385546 219.373579 C1321.281054 225.276930 1317.898120 230.003492 1311.915209 232.801893 C1309.815966 233.783766 1308.399340 236.265760 1306.729296 238.115431 C1304.138964 240.984327 1301.654956 243.952101 1298.991381 246.749769 C1298.429370 247.340101 1296.860888 247.878309 1296.496386 247.568739 C1295.645434 246.846022 1294.501879 245.276014 1294.787036 244.609266 C1296.175341 241.361586 1297.994433 238.297987 1299.661059 234.669264 z"/><path class="selected"  fill="#000000" opacity="1.000000" stroke="none" 
 	d="
M934.411059 652.419264 C933.495410 652.669264 932.829516 652.656019 932.164355 652.671949 C930.663012 652.707777 929.162158 652.758131 927.661059 652.802565 C929.267993 651.758131 930.806567 649.992018 932.497241 649.831984 C935.297778 649.566969 938.190966 650.395582 941.055468 650.645338 C942.597949 650.779860 944.213305 650.430128 945.698779 650.749586 C946.769213 650.979750 947.679370 651.954176 948.661059 652.596632 C947.894213 653.287489 947.236865 654.318251 946.340502 654.607252 C943.327685 655.578444 940.358569 655.864393 937.730151 653.335707 C937.004687 652.637648 935.700000 652.541517 934.411059 652.419264 z"/></svg>